<?xml version="1.0" encoding="UTF-8" standalone="no"?>
<svg
   xmlns:dc="http://purl.org/dc/elements/1.1/"
   xmlns:cc="http://creativecommons.org/ns#"
   xmlns:rdf="http://www.w3.org/1999/02/22-rdf-syntax-ns#"
   xmlns:svg="http://www.w3.org/2000/svg"
   xmlns="http://www.w3.org/2000/svg"
   xmlns:sodipodi="http://sodipodi.sourceforge.net/DTD/sodipodi-0.dtd"
   xmlns:inkscape="http://www.inkscape.org/namespaces/inkscape"
   height="24px"
   id="Layer_1"
   version="1.2"
   viewBox="0 0 24 24"
   width="24px"
   xml:space="preserve"
   inkscape:version="0.91 r13725"
   sodipodi:docname="favourite.svg"
   inkscape:export-filename="/media/ed/Documents/Dropbox/2017/Software/Major Project/libremusic/icons/favourite.svg"
   inkscape:export-xdpi="90.993629"
   inkscape:export-ydpi="90.993629"><metadata
     id="metadata13"><rdf:RDF><cc:Work
         rdf:about=""><dc:format>image/svg+xml</dc:format><dc:type
           rdf:resource="http://purl.org/dc/dcmitype/StillImage" /><dc:title></dc:title></cc:Work></rdf:RDF></metadata><defs
     id="defs11" /><sodipodi:namedview
     pagecolor="#ffffff"
     bordercolor="#666666"
     borderopacity="1"
     objecttolerance="10"
     gridtolerance="10"
     guidetolerance="10"
     inkscape:pageopacity="0"
     inkscape:pageshadow="2"
     inkscape:window-width="1920"
     inkscape:window-height="1012"
     id="namedview9"
     showgrid="false"
     inkscape:zoom="9.8333333"
     inkscape:cx="28.423729"
     inkscape:cy="12"
     inkscape:window-x="0"
     inkscape:window-y="32"
     inkscape:window-maximized="1"
     inkscape:current-layer="Layer_1" /><g
     id="g3"
     transform="matrix(1.421307,0,0,1.421307,-4.9536883,-5.0554847)"
     inkscape:export-xdpi="90"
     inkscape:export-ydpi="90"><g
       id="g5"><path
         d="m 9.362,9.158 c 0,0 -3.16,0.35 -5.268,0.584 -0.19,0.023 -0.358,0.15 -0.421,0.343 -0.063,0.193 0,0.394 0.14,0.521 1.566,1.429 3.919,3.569 3.919,3.569 -0.002,0 -0.646,3.113 -1.074,5.19 -0.036,0.188 0.032,0.387 0.196,0.506 0.163,0.119 0.373,0.121 0.538,0.028 1.844,-1.048 4.606,-2.624 4.606,-2.624 0,0 2.763,1.576 4.604,2.625 0.168,0.092 0.378,0.09 0.541,-0.029 0.164,-0.119 0.232,-0.318 0.195,-0.505 -0.428,-2.078 -1.071,-5.191 -1.071,-5.191 0,0 2.353,-2.14 3.919,-3.566 0.14,-0.131 0.202,-0.332 0.14,-0.524 -0.062,-0.192 -0.23,-0.319 -0.42,-0.341 -2.108,-0.236 -5.269,-0.586 -5.269,-0.586 0,0 -1.31,-2.898 -2.183,-4.83 C 12.372,4.155 12.2,4.034 11.998,4.034 c -0.202,0 -0.375,0.122 -0.453,0.294 -0.874,1.932 -2.183,4.83 -2.183,4.83 z"
         id="path7"
         inkscape:connector-curvature="0" /></g></g></svg>